<?xml version="1.0" encoding="utf-8"?>
<!-- Generator: Adobe Illustrator 21.1.0, SVG Export Plug-In . SVG Version: 6.00 Build 0)  -->
<svg version="1.1" id="Layer_1" xmlns="http://www.w3.org/2000/svg" xmlns:xlink="http://www.w3.org/1999/xlink" x="0px" y="0px"
	 viewBox="0 0 300 300" style="enable-background:new 0 0 300 300;" xml:space="preserve">
<style type="text/css">
	.st0{fill:none;stroke:#000000;stroke-width:15;stroke-linecap:round;stroke-linejoin:round;stroke-miterlimit:10;}
</style>
<path class="st0" d="M160.4,154.6c0-5.9-4.8-10.7-10.7-10.7s-10.7,4.8-10.7,10.7c0,11.8,9.6,21.4,21.4,21.4s21.4-9.6,21.4-21.4
	c0-17.8-14.4-32.2-32.2-32.2s-32.2,14.4-32.2,32.2c0,23.7,19.2,42.9,42.9,42.9s42.9-19.2,42.9-42.9c0-29.6-24-53.6-53.6-53.6
	s-53.6,24-53.6,53.6c0,35.5,28.8,64.3,64.3,64.3s64.3-28.8,64.3-64.3c0-41.5-33.6-75-75-75s-75,33.6-75,75
	c0,47.4,38.4,85.7,85.7,85.7s85.7-38.4,85.7-85.7c0-53.3-43.1-96.5-96.5-96.5s-96.5,43.1-96.5,96.5c0,59.2,47.9,107.2,107.2,107.2
	s107.2-47.9,107.2-107.2c0-65.2-52.7-117.9-117.9-117.9S31.8,89.5,31.8,154.6c0,71.1,57.5,128.6,128.6,128.6S289,225.7,289,154.6
	c0-77-62.3-139.3-139.3-139.3S10.3,77.6,10.3,154.6"/>
</svg>
